<svg xmlns="http://www.w3.org/2000/svg" width="57" height="81" viewBox="0 0 57 81">
    <g fill="none" fill-rule="nonzero">
        <path fill="#7D97AD" d="M28.465 81L5.187 74.502 0 16h57l-5.193 58.493z"/>
        <path fill="#7D97AD" d="M48.62 70.765L53 21H30v55l18.62-5.235z"/>
        <path fill="#EBEBEB" d="M12.221 42.654l.608 7.24H28v-7.24H12.221zM11 28l.616 7.24H28V28H11zm17 33.458l-.03.008-7.55-2.177-.483-5.774h-6.805l.95 11.368L27.968 69l.031-.01v-7.532z"/>
        <path fill="#7D97AD" d="M13 0h8.823v3.614H16.69V7.23h5.134v3.614H13V0zm10.588 0h8.824v3.143h-5.134v.628h5.134V11h-8.824V7.7h5.134V7.07h-5.134V0zm10.589 0H43v3.143h-5.134v.628H43V11h-8.823V7.7h5.133V7.07h-5.133V0z"/>
        <path fill="#FFF" d="M45.775 42.656L47 28H30v7.24h9.563l-.618 7.416H30v7.24h8.357l-.788 9.391L30 61.467V69l13.912-4.114.102-1.223L45.61 44.6l.166-1.944z"/>
    </g>
</svg>
