<svg xmlns="http://www.w3.org/2000/svg" width="57" height="81" viewBox="0 0 57 81">
    <g fill="none" fill-rule="nonzero">
        <path fill="#7D97AD" d="M5.187 74.502L0 16h57l-5.193 58.493L28.465 81z"/>
        <path fill="#7D97AD" d="M28 76l18.619-5.235L51 21H28z"/>
        <path fill="#EBEBEB" d="M29 42.654h-9.499l-.656-7.414H29V28H11l.172 1.942 1.764 19.952H29v-7.24zm0 18.804l-.032.008-7.994-2.177-.511-5.774h-7.206l1.006 11.368L28.967 69l.033-.01v-7.532z"/>
        <path fill="#7D97AD" d="M5 0h3.666v3.632h3.353V0h3.666v11h-3.666V7.317H8.666V11H5V0zm15.506 3.648h-3.227V0H27.4v3.648h-3.229V11h-3.666V3.648zM29.006 0h3.823l2.352 3.865L37.53 0h3.824v11h-3.652V5.548l-2.522 3.91h-.063l-2.523-3.91V11h-3.587V0zm14.172 0h3.667v7.364H52V11h-8.822V0z"/>
        <path fill="#FFF" d="M28 42.656v7.24h8.848l-.834 9.391L28 61.467V69l14.73-4.114.109-1.223L44.527 44.6l.176-1.944H28zM28 28v7.24h17.357l.144-1.627.327-3.67L46 28H28z"/>
    </g>
</svg>
