<svg xmlns="http://www.w3.org/2000/svg" width="81" height="81" viewBox="0 0 81 81">
    <g fill="none" fill-rule="nonzero">
        <path fill="#7D97AD" d="M0 0h81v81H0z"/>
        <path fill="#FFF" d="M21 67.205l6.269-3.663c1.21 2.07 2.31 3.822 4.949 3.822 2.53 0 4.124-.955 4.124-4.67V37.424h7.698v25.373C44.04 70.495 39.366 74 32.547 74 26.39 74 22.815 70.92 21 67.204m27.222-.795l6.268-3.504c1.65 2.602 3.794 4.512 7.588 4.512 3.19 0 5.224-1.54 5.224-3.663 0-2.548-2.09-3.45-5.609-4.936l-1.924-.797c-5.554-2.282-9.238-5.149-9.238-11.2 0-5.574 4.399-9.821 11.273-9.821 4.894 0 8.413 1.646 10.942 5.946l-5.994 3.716c-1.32-2.283-2.75-3.185-4.949-3.185-2.254 0-3.684 1.38-3.684 3.185 0 2.23 1.43 3.132 4.729 4.512l1.924.796C71.316 54.678 75 57.438 75 63.648 75 70.338 69.556 74 62.243 74c-7.148 0-11.767-3.291-14.022-7.591"/>
    </g>
</svg>
