<svg xmlns="http://www.w3.org/2000/svg" width="131" height="30" viewBox="0 0 131 30">
    <g fill="#7D97AD" fill-rule="nonzero">
        <path d="M125.576 2l5.424.03s-10.084 13.71-10.907 14.826c-.268.362-.674.752-.88 1.236-.52 1.216-1.055 3.883-1.055 3.883l-4.963.025s.772-2.78.74-4.261c-.028-1.294-.686-2.586-1.055-3.883-.373-1.313-.88-3.883-.88-3.883h5.102l.704 2.824L125.576 2"/>
        <path d="M114.376 5.162C115.382 5.78 116 9.181 116 9.181s-5.265.078-8.13.078h-2.476l-3.007 13.305H97.79s2.862-14.459 3.537-17.08c.22-.849 1.5-.703 3.663-.703h3.454c2.23 0 4.837-.29 5.933.381zm-21.406 6.48s.143-.854-.486-1.843c-.538-.843-1.035-1.04-2.45-1.085-3.995-.127-3.917 2.883-3.917 2.883l6.853.045zm4.333-3.447c.585 2.147-.53 7.191-.53 7.191s-5.828-.098-9.02 0c-.993.031-2.18-.11-2.476.36-.416.658.152 1.67.633 2.098.553.493 1.632.549 2.02.599 2.59.334 8.013.086 8.013.086l-.94 4.228s-7.662.391-11.495-.539c-.757-.183-1.466-.553-1.945-1.078-.131-.144-.245-.34-.369-.51-.098-.134-.386-.578-.516-.929-.875-2.371.103-6.914 1.061-9.349.112-.282.251-.64.399-.944.183-.379.339-.807.486-1.033.098-.157.22-.257.323-.405.119-.174.257-.343.384-.494.354-.417.755-.712 1.238-1.079 1.597-1.215 4.487-2.159 7.959-1.798 1.307.137 3.28.612 4.244 1.978.258.365.386 1.09.53 1.618zm-21.09-3.43l4.458-.027s-2.485 11.982-3.75 17.826h-5.13c-3.585 0-6.777.45-8.135-2.158-1.318-2.533-.06-6.699.53-9.529.418-2.003 1.297-6.096 1.297-6.096l4.62-.043s-1.306 6.373-1.849 9.555c-.194 1.14-.596 2.214-.177 3.056.398.803.955.86 2.653.9.538.013 2.3 0 2.3 0l3.183-13.485zm-20.87 8.63c.468-1.687 1.149-3.515 1.062-5.035-.094-1.625-1.434-3.104-2.3-3.415-2.604-.935-5.043.372-6.012 1.438-1.254 1.38-1.679 2.993-2.123 5.214-.33 1.648-.6 3.388 0 4.674 1.065 2.273 4.385 1.776 7.959 1.798.53-1.445.97-3.069 1.415-4.675zm6.19-6.653c.51 3.765-1.444 7.92-2.79 11.534 1.372.126 2.575-.02 2.662.084.09.135-.92 4.313-1.272 4.324-1.09.029-4.699.06-6.204.06-4.911 0-9.506.325-11.85-2.158-.95-1.009-1.609-2.738-1.768-3.955-.265-2.032.067-4.269.53-6.113.42-1.665.957-3.236 1.77-4.675C44.673 2.181 48.263-.537 54.282.09c1.167.122 2.843.642 3.89 1.259.073.043.326.248.384.284 1.415.915 2.704 3.1 2.977 5.11zm-21.73-1.956c-.297 1.375-.594 2.935-.907 4.294h-4.952c.384-1.507.678-3.005 1.062-4.315 1.584 0 3.057.021 4.798.021zm-6.036 5.552h4.776c-.625 3.513-1.861 9.18-2.83 13.125-.607 2.468-1.012 4.27-2.653 5.573-.147.117-.232.061-.354.18-.302.293-1.701.633-2.475.719-1.26.138-2.683.018-4.231-.014.405-1.505.863-3.312 1.224-4.66 3.772.463 3.868-3.161 4.598-6.653.423-2.017 1.703-7.46 1.945-8.27zM22.42 18.985l-.1.267c-1.732 3.409-4.8 5.5-9.176 5.592-2.046.043-3.995-.488-5.269-1.065-2.748-1.248-5.059-3.563-6.321-6.037C-.256 14.196-.583 9.264 3.182 5.58c.058 0-.457.799-.399.799l-.104.34C-.034 15.309 8.325 22.669 16.45 21.827c1.953-.202 4.443-1.284 5.97-2.84"/>
        <path d="M17.504 15.434c2.044.014 4.18-.952 5.444-2.308-1.107 2.84-4.31 4.664-8.605 4.084-3.596-.487-7.022-4.146-7.375-7.813-.258-2.668.661-4.261 2.177-6.193-.527 1.01-.723 1.79-.772 2.287-.576 5.772 4.56 9.913 9.13 9.943"/>
        <path d="M22.742 8.264c-.318.737-2.147 2.129-2.955 2.303-3.2.69-5.249-.845-6.322-2.59-.16-.261-.455-.973-.507-1.154-.417-1.432-.225-3.596 1.016-4.716-.374 1.065-.428 2.302-.231 3.107.119.486.482 1.335.846 1.87.662.972 1.082 1.209 1.932 1.726.382.232.793.419.97.47.807.24 2.508.872 5.251-1.016"/>
    </g>
</svg>
