<svg xmlns="http://www.w3.org/2000/svg" width="88" height="81" viewBox="0 0 88 81">
    <g fill="none" fill-rule="nonzero">
        <path fill="#FFF" d="M0 40.354C0 47.158 6.49 53.51 16.72 57.09c-2.043 10.53-.365 19.017 5.236 22.324 5.757 3.399 14.333 1.046 22.474-6.24 7.936 6.992 15.955 9.743 21.551 6.427 5.752-3.41 7.501-12.472 5.402-23.33C82.039 52.664 88 47.248 88 40.354c0-6.646-6.501-12.395-16.595-15.952 2.26-11.307.346-19.589-5.487-23.032C60.294-1.95 52.18.943 44.129 8.117 35.752.503 27.719-1.822 21.892 1.631c-5.618 3.33-7.221 11.972-5.172 22.696C6.835 27.856 0 33.735 0 40.354z"/>
        <path fill="#7D97AD" d="M70.954 27.688a53.08 53.08 0 0 0-2.543-.798c.142-.573.273-1.15.393-1.727 1.925-9.307.666-16.804-3.632-19.272-4.121-2.367-10.861.1-17.668 6a52.761 52.761 0 0 0-1.967 1.798c-.43-.41-.866-.81-1.31-1.204-7.133-6.309-14.284-8.967-18.578-6.491-4.117 2.373-5.337 9.422-3.604 18.242.173.873.367 1.742.584 2.605a52.557 52.557 0 0 0-2.924.916C11.342 30.661 6 35.213 6 39.934c0 4.876 5.734 9.766 14.446 12.732.706.239 1.419.46 2.136.665-.233.93-.44 1.867-.62 2.809-1.653 8.666-.362 15.548 3.744 17.907 4.241 2.435 11.36-.068 18.291-6.103a44.684 44.684 0 0 0 1.649-1.513 51.787 51.787 0 0 0 2.135 1.94c6.715 5.755 13.346 8.078 17.448 5.713 4.238-2.443 5.615-9.836 3.827-18.83a44.407 44.407 0 0 0-.474-2.103c.5-.147.99-.299 1.47-.457C79.107 49.706 85 44.874 85 39.934c0-4.738-5.514-9.32-14.046-12.246z"/>
        <path fill="#FFF" d="M68.408 49.96c-.43.142-.872.28-1.322.412-.997-3.138-2.342-6.474-3.987-9.92 1.57-3.366 2.863-6.66 3.832-9.777.805.232 1.587.476 2.34.734C76.556 33.904 81 37.592 81 40.434c0 3.028-4.8 6.958-12.592 9.527zm-3.233 6.374c.788 3.959.9 7.538.378 10.336-.469 2.514-1.412 4.19-2.577 4.862-2.481 1.428-7.787-.429-13.509-5.327a48.126 48.126 0 0 1-1.98-1.795c2.219-2.414 4.436-5.22 6.6-8.335 3.805-.336 7.4-.886 10.662-1.635.16.644.303 1.276.426 1.894zm-32.699 14.95c-2.424.852-4.354.877-5.52.207-2.484-1.424-3.516-6.924-2.108-14.302.167-.871.359-1.738.574-2.6 3.225.71 6.794 1.22 10.61 1.528 2.177 3.05 4.459 5.852 6.757 8.306-.488.47-.988.928-1.5 1.374-3.054 2.656-6.115 4.54-8.812 5.488zM21.121 49.943c-3.84-1.305-7.01-3.001-9.182-4.852C9.986 43.426 9 41.775 9 40.434c0-2.85 4.274-6.488 11.402-8.96a48.712 48.712 0 0 1 2.71-.849c.985 3.188 2.277 6.52 3.837 9.89-1.58 3.421-2.89 6.807-3.885 10.032-.653-.186-1.3-.387-1.943-.605zm3.806-25.776c-1.48-7.522-.497-13.196 1.976-14.62 2.634-1.516 8.457.647 14.596 6.068.392.347.786.71 1.18 1.085-2.286 2.443-4.546 5.225-6.705 8.256-3.703.341-7.247.89-10.506 1.624-.2-.8-.38-1.604-.54-2.413zm33.959 8.342a106.291 106.291 0 0 0-2.394-3.917c2.512.316 4.919.735 7.178 1.248a71.126 71.126 0 0 1-2.52 6.744 116.418 116.418 0 0 0-2.264-4.075zM45.038 19.09a71.632 71.632 0 0 1 4.632 5.563 99.555 99.555 0 0 0-9.304-.002 73.87 73.87 0 0 1 4.672-5.561zM31.1 32.53a98.7 98.7 0 0 0-2.222 4.05 73.584 73.584 0 0 1-2.501-6.776c2.246-.5 4.641-.909 7.137-1.219a98.262 98.262 0 0 0-2.414 3.946zm2.486 19.993a71.957 71.957 0 0 1-7.256-1.16 74.763 74.763 0 0 1 2.552-6.914 98.098 98.098 0 0 0 4.704 8.074zm11.545 9.492a75.29 75.29 0 0 1-4.737-5.639c1.507.06 3.044.09 4.606.09 1.605 0 3.191-.037 4.752-.106a71.219 71.219 0 0 1-4.621 5.655zm16.052-17.687a70.82 70.82 0 0 1 2.643 6.89 71.718 71.718 0 0 1-7.343 1.245c.832-1.313 1.638-2.641 2.417-3.985.791-1.366 1.553-2.75 2.283-4.15zm-5.197 2.478a109.592 109.592 0 0 1-3.777 6.062c-2.335.166-4.75.252-7.209.252-2.45 0-4.833-.076-7.128-.224a94.823 94.823 0 0 1-7.206-12.381 94.746 94.746 0 0 1 3.349-6.314v.001a93.94 93.94 0 0 1 3.817-6.045 95.784 95.784 0 0 1 14.35.002c1.335 1.963 2.6 3.973 3.793 6.025a109.48 109.48 0 0 1 3.394 6.283 100.61 100.61 0 0 1-3.383 6.34zm6.938-37.359c2.636 1.513 3.662 7.612 2.005 15.61a44 44 0 0 1-.354 1.557c-3.266-.75-6.813-1.308-10.526-1.655-2.163-3.064-4.405-5.85-6.655-8.262a49.351 49.351 0 0 1 1.81-1.651c5.813-5.032 11.245-7.019 13.72-5.599z"/>
        <path fill="#7D97AD" d="M45 34a7 7 0 1 1 0 14 7 7 0 0 1 0-14"/>
    </g>
</svg>
